<svg width="25" height="21" viewBox="0 0 25 21" fill="none" xmlns="http://www.w3.org/2000/svg">
<path d="M14.48 0.289825C14.2926 0.103574 14.0392 -0.000976562 13.775 -0.000976562C13.5108 -0.000976562 13.2574 0.103574 13.07 0.289825C12.9763 0.382788 12.9019 0.493375 12.8511 0.615234C12.8003 0.737094 12.7742 0.867805 12.7742 0.999817C12.7742 1.13183 12.8003 1.26254 12.8511 1.3844C12.9019 1.50626 12.9763 1.61685 13.07 1.70981L20.66 9.2998H1C0.734784 9.2998 0.480429 9.40518 0.292892 9.59271C0.105356 9.78025 0 10.0346 0 10.2998C0 10.565 0.105356 10.8194 0.292892 11.0069C0.480429 11.1945 0.734784 11.2998 1 11.2998H20.67L13.07 18.8698C12.8837 19.0572 12.7792 19.3106 12.7792 19.5748C12.7792 19.839 12.8837 20.0925 13.07 20.2798C13.2574 20.4661 13.5108 20.5706 13.775 20.5706C14.0392 20.5706 14.2926 20.4661 14.48 20.2798L24.48 10.2798L14.48 0.289825Z" fill="#115E98"/>
</svg>
