<svg width="25" height="21" viewBox="0 0 25 21" fill="none" xmlns="http://www.w3.org/2000/svg">
<g clip-path="url(#clip0)">
<path d="M10.01 20.3C10.1974 20.4862 10.4508 20.5908 10.715 20.5908C10.9792 20.5908 11.2326 20.4862 11.42 20.3C11.5137 20.207 11.5881 20.0964 11.6389 19.9745C11.6897 19.8527 11.7158 19.722 11.7158 19.59C11.7158 19.458 11.6897 19.3272 11.6389 19.2054C11.5881 19.0835 11.5137 18.9729 11.42 18.88L3.82999 11.29L23.49 11.29C23.7552 11.29 24.0096 11.1846 24.1971 10.9971C24.3846 10.8095 24.49 10.5552 24.49 10.29C24.49 10.0248 24.3846 9.77039 24.1971 9.58286C24.0096 9.39532 23.7552 9.28998 23.49 9.28998L3.81999 9.28998L11.42 1.71997C11.6062 1.53261 11.7108 1.27917 11.7108 1.01499C11.7108 0.7508 11.6062 0.497331 11.42 0.309968C11.2326 0.123718 10.9792 0.0191662 10.715 0.0191662C10.4508 0.0191663 10.1974 0.123718 10.01 0.309968L0.00999361 10.31L10.01 20.3Z" fill="#115E98"/>
</g>
<defs>
<clipPath id="clip0">
<rect width="25" height="21" fill="white" transform="translate(25 21) rotate(180)"/>
</clipPath>
</defs>
</svg>
