<svg width="49" height="42" viewBox="0 0 49 42" fill="none" xmlns="http://www.w3.org/2000/svg">
<path d="M1.575 0C0.705128 0 0 0.705154 0 1.575C0 2.44485 0.705128 3.15 1.575 3.15H7.85862C10.4654 9.60618 13.033 16.0742 15.6188 22.5422L13.2399 28.2679C13.0406 28.7453 13.0967 29.321 13.3843 29.7509C13.672 30.1808 14.1827 30.4522 14.7 30.45H40.95C41.7821 30.4615 42.5474 29.7072 42.5474 28.875C42.5474 28.0428 41.7821 27.2882 40.95 27.3H17.0625L18.4242 24.0516L43.7063 22.0336C44.368 21.9816 44.967 21.4661 45.1172 20.8196L48.2672 7.16953C48.4732 6.25014 47.6672 5.24693 46.725 5.25H12.0914L10.3851 0.984375C10.1515 0.406969 9.54786 1.575e-05 8.925 0H1.575ZM13.3547 8.4H44.7399L42.2953 18.9984L18.3586 20.9016L13.3547 8.4ZM19.95 31.5C17.0692 31.5 14.7 33.8691 14.7 36.75C14.7 39.6308 17.0692 42 19.95 42C22.8308 42 25.2 39.6308 25.2 36.75C25.2 33.8692 22.8308 31.5 19.95 31.5ZM35.7 31.5C32.8192 31.5 30.45 33.8692 30.45 36.75C30.45 39.6308 32.8192 42 35.7 42C38.5808 42 40.95 39.6308 40.95 36.75C40.95 33.8691 38.5808 31.5 35.7 31.5ZM19.95 34.65C21.1285 34.65 22.05 35.5715 22.05 36.75C22.05 37.9285 21.1285 38.85 19.95 38.85C18.7716 38.85 17.85 37.9284 17.85 36.75C17.85 35.5716 18.7716 34.65 19.95 34.65ZM35.7 34.65C36.8784 34.65 37.8 35.5716 37.8 36.75C37.8 37.9284 36.8784 38.85 35.7 38.85C34.5215 38.85 33.6 37.9285 33.6 36.75C33.6 35.5715 34.5215 34.65 35.7 34.65Z" fill="#115E98"/>
</svg>
