<svg width="16" height="16" viewBox="0 0 16 16" fill="none" xmlns="http://www.w3.org/2000/svg">
<g clip-path="url(#clip0)">
<path d="M9.10075 8.00364L15.7745 1.32985C15.8471 1.25733 15.9046 1.17123 15.9438 1.07648C15.9831 0.981721 16.0033 0.880163 16.0033 0.777598C16.0033 0.675034 15.9831 0.573452 15.9438 0.478695C15.9046 0.383938 15.8471 0.297845 15.7745 0.225321C15.702 0.152797 15.6159 0.0952742 15.5212 0.0560246C15.4264 0.0167749 15.3248 -0.00343796 15.2223 -0.00343795C15.1197 -0.00343795 15.0182 0.0167749 14.9234 0.0560246C14.8286 0.0952743 14.7425 0.152797 14.67 0.225321L7.99623 6.89135L1.32243 0.217559C1.17669 0.0726867 0.979546 -0.00863647 0.774054 -0.00863647C0.568562 -0.00863647 0.371418 0.0726867 0.225682 0.217559C0.152777 0.289868 0.0949136 0.375886 0.0554241 0.470672C0.0159346 0.565458 -0.00439453 0.66713 -0.00439453 0.769813C-0.00439453 0.872496 0.0159346 0.974167 0.0554241 1.06895C0.0949136 1.16374 0.152777 1.24976 0.225682 1.32207L6.89948 7.99588L0.225682 14.6697C0.0808097 14.8154 -0.000501574 15.0125 -0.000501574 15.218C-0.000501574 15.4235 0.0808097 15.6207 0.225682 15.7664C0.298362 15.8385 0.38456 15.8955 0.479329 15.9342C0.574098 15.9729 0.67558 15.9926 0.777947 15.992C0.982004 15.9911 1.17755 15.9101 1.32243 15.7664L7.99623 9.0926L14.67 15.7664C14.7427 15.8385 14.8289 15.8955 14.9237 15.9342C15.0184 15.9729 15.1199 15.9926 15.2223 15.992C15.3246 15.9926 15.4261 15.9729 15.5209 15.9342C15.6157 15.8955 15.7019 15.8385 15.7745 15.7664C15.9194 15.6207 16.0007 15.4235 16.0007 15.218C16.0007 15.0125 15.9194 14.8154 15.7745 14.6697L9.10075 8.00364Z" fill="#EF4E76"/>
</g>
<defs>
<clipPath id="clip0">
<rect width="16" height="16" fill="white"/>
</clipPath>
</defs>
</svg>
