<svg width="16" height="16" viewBox="0 0 16 16" fill="none" xmlns="http://www.w3.org/2000/svg">
<path d="M7.94002 1C6.35914 1.01581 4.84839 1.65493 3.73611 2.77844C2.62384 3.90195 1.99993 5.41904 2.00001 7C1.99699 8.41855 2.50864 9.79005 3.44002 10.86L4.16002 11.58L7.94002 15.36L12.44 10.86C13.3714 9.79005 13.883 8.41855 13.88 7C13.8801 5.41904 13.2562 3.90195 12.1439 2.77844C11.0316 1.65493 9.52089 1.01581 7.94002 1ZM10.12 8.48999C9.79025 8.95116 9.32274 9.29589 8.7847 9.47458C8.24666 9.65327 7.66582 9.65673 7.12568 9.48447C6.58555 9.3122 6.11395 8.97307 5.77872 8.51587C5.44348 8.05866 5.26187 7.50694 5.26001 6.94C5.26001 6.22922 5.54237 5.54755 6.04497 5.04495C6.54756 4.54235 7.22924 4.26001 7.94002 4.26001C8.6508 4.26001 9.33247 4.54235 9.83507 5.04495C10.3377 5.54755 10.62 6.22922 10.62 6.94C10.6215 7.49656 10.4465 8.03924 10.12 8.48999Z" fill="#115E98"/>
</svg>
