<svg width="216" height="129" viewBox="0 0 216 129" fill="none" xmlns="http://www.w3.org/2000/svg">
<g clip-path="url(#clip0)">
<path d="M79.2905 39.4126H51.6479V40.3954C55.1881 40.936 55.7217 41.5257 55.7217 44.0812V76.368C55.7217 78.9235 55.1881 79.5131 51.6479 80.0046V80.9875H66.1966V80.0046C62.3655 79.5131 61.8321 78.776 61.8321 75.9748V60.4948H68.67C72.1617 60.4948 72.8406 61.8709 73.5195 66.1954H74.441V53.2708H73.6165C72.7436 57.6446 72.1131 58.8731 68.7669 58.9714H61.9291V40.1989H67.4576C75.1684 40.5429 77.5932 42.1646 79.0965 48.6515H79.9696L79.2905 39.4126Z" fill="#115E98"/>
<path d="M91.5114 125.019V38.3804L82.4913 39.4124V40.2969L84.1401 40.7884C85.692 41.329 85.9344 41.6238 85.9344 43.1472V121.776C85.8316 122.752 85.9425 123.74 86.2591 124.668C86.5758 125.596 87.0903 126.443 87.7663 127.146C88.4424 127.85 89.2631 128.394 90.1703 128.74C91.0774 129.086 92.0486 129.225 93.0148 129.147H94.4212V128.214C91.5114 127.476 91.5114 126.985 91.5114 125.019Z" fill="#115E98"/>
<path d="M125.943 78.8252C124.392 78.3338 124.198 77.9897 124.198 76.4663V52.8286L115.129 53.8606V54.7452L116.826 55.2366C118.378 55.7772 118.572 56.0721 118.572 57.6447V75.4343C117.935 76.5029 117.029 77.3803 115.946 77.9762C114.864 78.5722 113.644 78.8653 112.413 78.8252C108.291 78.8252 106.012 76.4172 106.012 71.552V52.8286L96.9915 53.8606V54.7452L98.6888 55.2366C100.192 55.7772 100.386 56.0721 100.386 57.6447V72.7314C100.304 73.9598 100.492 75.1915 100.936 76.3372C101.381 77.4829 102.072 78.514 102.959 79.356C103.845 80.1979 104.905 80.8296 106.062 81.2053C107.22 81.5809 108.445 81.6911 109.649 81.528C111.447 81.6339 113.239 81.2303 114.824 80.3623C116.408 79.4943 117.723 78.1963 118.621 76.6137V81.528L127.592 80.4469V79.5623L125.943 78.8252Z" fill="#115E98"/>
<path d="M142.335 42.5088C142.228 42.8891 142.209 43.2894 142.281 43.6783C142.352 44.0671 142.512 44.4338 142.747 44.7496C142.982 45.0654 143.286 45.3215 143.635 45.4979C143.984 45.6743 144.369 45.7661 144.76 45.7661C145.15 45.7661 145.535 45.6743 145.884 45.4979C146.234 45.3215 146.538 45.0654 146.773 44.7496C147.008 44.4338 147.168 44.0671 147.239 43.6783C147.31 43.2894 147.292 42.8891 147.185 42.5088C147.185 40.1499 145.293 38.1351 141.559 38.1351C140.365 38.1013 139.179 38.3322 138.082 38.8118C136.986 39.2913 136.006 40.0079 135.211 40.9114C134.417 41.8148 133.827 42.8833 133.482 44.042C133.138 45.2008 133.048 46.4218 133.218 47.6196V53.1728L129.775 54.3522V55.0402H133.218V77.2036C133.218 79.1201 132.83 79.6116 129.775 80.0047V80.9877H142.626V80.0047C139.231 79.5625 138.843 79.0711 138.843 76.8597V54.7453L146.069 55.0402V53.1236L138.843 53.4676V45.703C138.843 41.4768 140.153 39.6093 142.626 39.6093C143.215 39.5992 143.797 39.7341 144.323 40.0025C143.75 40.1084 143.234 40.42 142.868 40.8802C142.503 41.3405 142.314 41.9186 142.335 42.5088Z" fill="#115E98"/>
<path d="M160.327 42.5085C160.32 42.8523 160.382 43.194 160.509 43.513C160.636 43.832 160.825 44.1219 161.065 44.3651C161.305 44.6083 161.591 44.7998 161.906 44.9284C162.221 45.0569 162.558 45.1197 162.897 45.113C163.23 45.1133 163.56 45.0453 163.867 44.9133C164.173 44.7812 164.45 44.5878 164.681 44.3445C164.912 44.1013 165.092 43.8133 165.211 43.4978C165.329 43.1823 165.384 42.8458 165.37 42.5085C165.37 40.1496 163.479 38.1348 159.745 38.1348C154.895 38.1348 151.452 41.4273 151.452 47.6193V53.1725L148.009 54.3519V55.0398H151.452V77.2033C151.452 79.1198 151.016 79.6113 148.009 80.0044V80.9873H160.812V80.0044C157.417 79.5621 157.029 79.0708 157.029 76.8594V54.745L164.304 55.0398V53.1233L157.029 53.4673V45.7027C157.029 41.4764 158.387 39.609 160.86 39.609C161.449 39.6045 162.03 39.7391 162.558 40.0021C161.94 40.0522 161.365 40.3397 160.951 40.8058C160.536 41.2718 160.312 41.881 160.327 42.5085Z" fill="#115E98"/>
<path d="M69.5914 104.773L66.6816 103.642C61.3956 101.628 58.3889 99.2196 58.3889 94.895C58.3889 90.5704 61.3472 87.671 66.7787 87.671C72.2102 87.671 75.4109 91.111 76.9143 97.4996H77.7872L77.4477 88.6539C74.2657 86.7159 70.5825 85.7913 66.8757 86.0002C59.2618 86.0002 53.2484 89.8824 53.2484 97.0573C53.2484 102.758 56.7885 106.591 63.384 109.048L66.3421 110.179C72.0161 112.341 74.635 115.093 74.635 119.319C74.6479 120.449 74.4247 121.569 73.98 122.606C73.5352 123.642 72.879 124.572 72.0545 125.333C71.23 126.094 70.2558 126.67 69.1961 127.023C68.1364 127.375 67.015 127.496 65.9057 127.378C62.8851 127.374 59.9713 126.246 57.7182 124.207C55.465 122.169 54.0297 119.362 53.6848 116.321H52.8119L53.2484 125.658C57.041 127.93 61.4084 129.024 65.8087 128.804C67.5128 128.986 69.2356 128.817 70.8736 128.307C72.5117 127.798 74.0309 126.958 75.3402 125.837C76.6495 124.717 77.7217 123.34 78.4923 121.789C79.2628 120.238 79.7157 118.546 79.8239 116.813C79.7754 111.21 76.3323 107.377 69.5914 104.773Z" fill="#115E98"/>
<path d="M95.8762 126.395C93.3544 126.395 91.5115 124.97 91.5115 120.842V102.168L98.9798 102.463V100.448L91.5115 100.792V94.8457H91.0266L85.9345 98.8755V121.432C85.8317 122.409 85.9426 123.396 86.2592 124.325C86.5758 125.253 87.0904 126.099 87.7664 126.803C88.4424 127.506 89.2632 128.051 90.1703 128.396C91.0775 128.742 92.0487 128.881 93.0148 128.803H94.4212C95.3688 128.692 96.2853 128.391 97.1176 127.919C97.95 127.447 98.6818 126.812 99.2708 126.051V125.019C98.3464 125.888 97.1368 126.378 95.8762 126.395Z" fill="#115E98"/>
<path d="M124.974 126.248C123.422 125.708 123.228 125.413 123.228 123.84V100.448L114.208 101.48V102.365L115.856 102.856C117.408 103.397 117.651 103.692 117.651 105.215V123.054C116.999 124.12 116.082 124.993 114.993 125.588C113.904 126.183 112.68 126.479 111.443 126.445C107.321 126.445 105.09 124.037 105.09 119.122V100.448L96.1671 100.891V102.365L97.8643 102.856C99.3677 103.397 99.6103 103.692 99.6103 105.215V120.105C99.5289 121.329 99.716 122.556 100.158 123.698C100.6 124.839 101.287 125.867 102.168 126.708C103.048 127.55 104.102 128.182 105.253 128.562C106.404 128.941 107.624 129.057 108.824 128.902C110.623 129.008 112.415 128.604 113.999 127.736C115.584 126.868 116.899 125.57 117.796 123.988V128.902L126.768 127.821V126.985L124.974 126.248Z" fill="#115E98"/>
<path d="M139.91 89.9311C139.91 90.6219 140.181 91.2844 140.663 91.7729C141.145 92.2613 141.799 92.5358 142.481 92.5358C142.812 92.5294 143.138 92.4569 143.442 92.3225C143.745 92.1882 144.02 91.9945 144.25 91.7526C144.479 91.5108 144.66 91.2255 144.781 90.9129C144.901 90.6004 144.96 90.2667 144.954 89.9311C144.954 87.5231 143.062 85.5574 139.328 85.5574C138.135 85.5236 136.948 85.7546 135.851 86.2341C134.755 86.7137 133.775 87.4303 132.981 88.3337C132.186 89.2372 131.596 90.3056 131.252 91.4644C130.907 92.6231 130.817 93.8442 130.987 95.042V100.448L127.592 101.676V102.364H130.987V124.528C130.987 126.395 130.599 126.887 127.592 127.329V128.312H140.395V127.329C137.001 126.887 136.613 126.395 136.613 124.184V102.069L143.838 102.364V100.448L136.613 100.743V93.0271C136.613 88.7517 137.922 86.8842 140.395 86.8842C141.006 86.8674 141.61 87.0203 142.141 87.3265C141.506 87.3769 140.916 87.6783 140.499 88.1656C140.082 88.6529 139.87 89.2871 139.91 89.9311Z" fill="#115E98"/>
<path d="M157.708 89.9311C157.708 90.6219 157.979 91.2844 158.461 91.7729C158.943 92.2613 159.597 92.5358 160.278 92.5358C160.614 92.5359 160.946 92.4681 161.255 92.3366C161.564 92.2051 161.844 92.0126 162.079 91.77C162.314 91.5275 162.498 91.2399 162.622 90.9242C162.746 90.6085 162.807 90.2708 162.8 89.9311C162.8 87.5231 160.86 85.5574 157.175 85.5574C155.981 85.5236 154.794 85.7546 153.698 86.2341C152.601 86.7137 151.622 87.4303 150.827 88.3337C150.033 89.2372 149.442 90.3056 149.098 91.4644C148.754 92.6231 148.663 93.8442 148.833 95.042V100.448L145.39 101.676V102.364H148.833V124.528C148.833 126.395 148.445 126.887 145.39 127.329V128.312H158.193V127.329C154.798 126.887 154.41 126.395 154.41 124.184V102.069L161.685 102.364V100.448L154.41 100.743V93.0271C154.41 88.7517 155.768 86.8842 158.242 86.8842C158.836 86.8738 159.423 87.0266 159.939 87.3265C159.304 87.3769 158.714 87.6783 158.297 88.1656C157.879 88.6529 157.668 89.2871 157.708 89.9311Z" fill="#115E98"/>
<path d="M193.837 128.214C195.275 124.396 196.41 120.469 197.232 116.469C198.202 112.488 198.978 108.459 199.803 104.429C201.354 96.3694 203.1 88.3099 204.216 80.2996C205.247 72.3181 205.636 64.265 205.379 56.2197C205.203 48.1393 204.277 40.0937 202.615 32.1888V31.8448V31.5499C202.589 30.533 202.425 29.5245 202.13 28.5522L201.645 26.9797L202.858 25.8494C205.888 23.192 208.22 19.8152 209.647 16.0208C210.243 14.1466 210.554 12.1911 210.569 10.2219C210.561 9.23431 210.48 8.24863 210.326 7.27334C210.326 6.38877 209.793 4.91452 209.89 5.16024C210.035 5.37252 210.222 5.55197 210.439 5.68731C210.656 5.82265 210.898 5.91094 211.15 5.94654H211.878L210.908 6.58535L208.289 8.69853C206.436 10.1988 204.456 11.5308 202.373 12.6791C200.272 13.8719 198.063 14.8593 195.777 15.6277L194.177 16.1683L193.062 16.6596C192.323 17.0767 191.652 17.6072 191.073 18.2323L189.618 19.6574L187.727 18.6745C181.776 15.9397 175.474 14.0702 169.008 13.1214C162.364 11.9911 155.671 11.2048 148.93 10.6151C135.4 9.48481 121.821 9.09168 108.194 9.09168C94.5667 9.09168 80.9394 9.53397 67.4576 10.7134C60.7167 11.3031 53.9759 12.0894 47.3804 13.318C40.9729 14.2345 34.761 16.2275 29.0005 19.2151L26.9152 20.4928L25.4119 18.6745C24.1655 17.1706 22.4583 16.1326 20.5623 15.7259C18.1499 14.9427 15.8125 13.9393 13.5789 12.7282C11.393 11.4971 9.30168 10.1008 7.32292 8.5511L4.55863 6.33969L4.02525 5.94654C4.02525 5.94654 3.73427 5.94654 4.02525 5.94654H4.51009C4.78053 5.90947 5.04288 5.82638 5.28604 5.70081C5.44041 5.59788 5.57251 5.46409 5.67409 5.30766C5.41037 6.20573 5.23167 7.12722 5.14056 8.05965C5.04383 9.10574 5.04383 10.1587 5.14056 11.2048C5.29158 13.1713 5.76701 15.0982 6.54697 16.9054C7.35552 18.9078 8.45037 20.7789 9.79625 22.4585C11.2274 24.1941 12.7662 25.8355 14.4033 27.3728L15.4216 28.3557V29.6334V31.5499C13.8029 47.8761 13.2683 64.2941 13.8213 80.6929C14.1216 88.938 15.013 97.1501 16.4885 105.264C17.19 109.319 18.1458 113.324 19.3499 117.255C20.4673 121.229 22.2379 124.984 24.5874 128.361C22.0658 125.084 20.1142 121.394 18.8164 117.452C17.3823 113.557 16.2156 109.567 15.3247 105.51C13.443 97.4281 12.1623 89.2146 11.4935 80.9385C10.1273 64.3652 9.85195 47.7181 10.6691 31.1077L10.9116 28.4048L11.7361 30.6654C9.83474 28.9763 8.03697 27.171 6.35295 25.2596C4.69747 23.2062 3.34196 20.9223 2.32787 18.478C1.328 15.9877 0.738136 13.348 0.581945 10.6642C0.484241 9.3228 0.484241 7.97595 0.581945 6.63454C0.701343 5.16965 1.02805 3.72972 1.55192 2.35906L1.93982 1.57283C2.2153 1.16958 2.5604 0.819953 2.95834 0.540795C3.38619 0.265764 3.86605 0.084333 4.36712 0.00816919C4.8682 -0.0679946 5.37931 -0.0371927 5.86796 0.0985274C6.41103 0.218859 6.92331 0.453231 7.37147 0.786524L8.29275 1.42541L11.1541 3.63682C12.9224 5.00093 14.7863 6.23276 16.7311 7.32253C18.69 8.35432 20.7346 9.20945 22.8415 9.87798C25.647 10.6305 28.1541 12.244 30.0189 14.4973L26.3817 13.9568C32.7302 10.434 39.6413 8.07182 46.7984 6.9785C53.6363 5.65164 60.5228 4.81625 67.3607 4.17739C81.1335 2.94882 94.9061 2.5557 108.63 2.50655C122.355 2.45741 136.079 2.85054 149.852 4.02997C156.738 4.61969 163.625 5.40596 170.463 6.63454C177.54 7.7114 184.421 9.84783 190.879 12.9739L187.533 13.4162C188.515 12.4121 189.644 11.5669 190.879 10.9099C191.511 10.5607 192.177 10.2807 192.868 10.0745L194.419 9.53395C196.387 8.86762 198.301 8.04606 200.142 7.0768C201.963 6.03469 203.713 4.86895 205.379 3.58763L208.047 1.47452C208.631 1.02025 209.247 0.609642 209.89 0.24595L210.811 -0.098086C211.261 -0.162617 211.718 -0.162617 212.169 -0.098086C212.704 -0.0444421 213.221 0.128844 213.682 0.40927C214.144 0.689696 214.538 1.07029 214.836 1.52364C215.58 2.88577 216.027 4.39419 216.146 5.94654C216.341 7.19815 216.438 8.46336 216.437 9.73049C216.41 12.3045 215.984 14.8584 215.176 17.2985C213.465 21.9757 210.632 26.1475 206.931 29.4368L207.659 26.7831C208.095 28.2331 208.324 29.7392 208.338 31.2551V30.5671C210.045 38.8629 210.97 47.3042 211.102 55.7774C211.281 64.1757 210.778 72.5746 209.599 80.8893C208.38 89.1862 206.631 97.394 204.361 105.461C202.387 113.618 199.198 121.423 194.904 128.607L193.837 128.214Z" fill="#115E98"/>
</g>
<defs>
<clipPath id="clip0">
<rect width="216" height="129" fill="white"/>
</clipPath>
</defs>
</svg>
