<svg width="48" height="40" viewBox="0 0 48 40" fill="none" xmlns="http://www.w3.org/2000/svg">
<path d="M28.3922 0.565444C28.0248 0.203292 27.5278 0 27.0098 0C26.4918 0 25.9948 0.203292 25.6274 0.565444C25.4437 0.746204 25.2978 0.961232 25.1982 1.19818C25.0987 1.43512 25.0475 1.68928 25.0475 1.94597C25.0475 2.20266 25.0987 2.45682 25.1982 2.69376C25.2978 2.93071 25.4437 3.14574 25.6274 3.3265L40.5098 18.0847L1.96078 18.0847C1.44075 18.0847 0.942017 18.2896 0.574299 18.6542C0.206581 19.0189 0 19.5134 0 20.0291C0 20.5448 0.206581 21.0394 0.574299 21.4041C0.942017 21.7687 1.44075 21.9736 1.96078 21.9736L40.5294 21.9736L25.6274 36.6929C25.2622 37.0572 25.0573 37.55 25.0573 38.0637C25.0573 38.5774 25.2622 39.0702 25.6274 39.4346C25.9948 39.7967 26.4918 40 27.0098 40C27.5278 40 28.0248 39.7967 28.3922 39.4346L48 19.9903L28.3922 0.565444Z" fill="white"/>
</svg>
