<svg width="29" height="36" viewBox="0 0 29 36" fill="none" xmlns="http://www.w3.org/2000/svg">
<path d="M2.99366 0H25.2C26.8294 0 28.1558 1.32632 28.1558 2.95579V33.0442C28.1558 34.6737 26.8294 36 25.2 36H2.95576C1.32629 36 -2.67029e-05 34.6737 -2.67029e-05 33.0442V2.95579C0.0378685 1.32632 1.36418 0 2.99366 0ZM2.57681 33.0442C2.57681 33.2716 2.76629 33.4611 2.99366 33.4611H25.2C25.4273 33.4611 25.6168 33.2716 25.6168 33.0442V2.95579C25.6168 2.72842 25.4273 2.53895 25.2 2.53895H2.95576C2.72839 2.53895 2.53892 2.72842 2.53892 2.95579V33.0442H2.57681Z" fill="#115E98" fill-opacity="0.12"/>
<path d="M7.9199 20.5391H20.2736C20.9936 20.5391 21.562 21.1075 21.562 21.8275C21.562 22.5475 20.9936 23.1159 20.2736 23.1159H7.9199C7.1999 23.1159 6.63149 22.5475 6.63149 21.8275C6.63149 21.1075 7.1999 20.5391 7.9199 20.5391Z" fill="#115E98" fill-opacity="0.12"/>
<path d="M7.9199 26.7915H20.2736C20.9936 26.7915 21.562 27.3599 21.562 28.0799C21.562 28.7999 20.9936 29.3683 20.2736 29.3683H7.9199C7.1999 29.3683 6.63149 28.7999 6.63149 28.0799C6.63149 27.3599 7.1999 26.7915 7.9199 26.7915Z" fill="#115E98" fill-opacity="0.12"/>
<path d="M14.6653 16.4087C14.3621 16.7119 13.8695 16.7119 13.5663 16.4087L9.51161 12.354C8.37477 11.2171 8.41266 9.28451 9.70108 8.22345C10.8379 7.31398 12.5053 7.46556 13.5285 8.48872L14.0969 9.09503L14.779 8.41293C15.9158 7.27609 17.8485 7.31398 18.9095 8.6024C19.819 9.73924 19.6674 11.4066 18.6442 12.4298L14.6653 16.4087Z" fill="#115E98" fill-opacity="0.12"/>
</svg>
