<svg width="29" height="36" viewBox="0 0 29 36" fill="none" xmlns="http://www.w3.org/2000/svg">
<path d="M2.99414 0H25.2005C26.8299 0 28.1562 1.32632 28.1562 2.95579V33.0442C28.1562 34.6737 26.8299 36 25.2005 36H2.95625C1.32678 36 0.000461578 34.6737 0.000461578 33.0442V2.95579C0.0383568 1.32632 1.36467 0 2.99414 0ZM2.5773 33.0442C2.5773 33.2716 2.76678 33.4611 2.99414 33.4611H25.2005C25.4278 33.4611 25.6173 33.2716 25.6173 33.0442V2.95579C25.6173 2.72842 25.4278 2.53895 25.2005 2.53895H2.95625C2.72888 2.53895 2.53941 2.72842 2.53941 2.95579V33.0442H2.5773Z" fill="#115E98"/>
<path d="M7.92039 20.5391H20.2741C20.9941 20.5391 21.5625 21.1075 21.5625 21.8275C21.5625 22.5475 20.9941 23.1159 20.2741 23.1159H7.92039C7.20039 23.1159 6.63197 22.5475 6.63197 21.8275C6.63197 21.1075 7.20039 20.5391 7.92039 20.5391Z" fill="#115E98"/>
<path d="M7.92039 26.7915H20.2741C20.9941 26.7915 21.5625 27.3599 21.5625 28.0799C21.5625 28.7999 20.9941 29.3683 20.2741 29.3683H7.92039C7.20039 29.3683 6.63197 28.7999 6.63197 28.0799C6.63197 27.3599 7.20039 26.7915 7.92039 26.7915Z" fill="#115E98"/>
<path d="M14.666 16.4087C14.3629 16.7119 13.8702 16.7119 13.5671 16.4087L9.51234 12.354C8.3755 11.2171 8.41339 9.28451 9.70182 8.22345C10.8387 7.31398 12.506 7.46556 13.5292 8.48872L14.0976 9.09503L14.7797 8.41293C15.9166 7.27609 17.8492 7.31398 18.9102 8.6024C19.8197 9.73924 19.6681 11.4066 18.645 12.4298L14.666 16.4087Z" fill="#115E98"/>
</svg>
